<svg xmlns="http://www.w3.org/2000/svg" viewBox="0 0 66.67 66.67"><title>face_happy</title><g id="Capa_1" data-name="Capa 1"><path d="M34,.67A33.33,33.33,0,1,0,67.33,34,33.31,33.31,0,0,0,34,.67Zm0,60A26.67,26.67,0,1,1,60.67,34,26.67,26.67,0,0,1,34,60.67Zm0-8.34A18.32,18.32,0,0,0,51.07,40.67H45.5a13.26,13.26,0,0,1-23,0H16.93A18.32,18.32,0,0,0,34,52.33Z" transform="translate(-0.67 -0.67)"/></g><g id="eyes"><path d="M19.79,31.21a5,5,0,1,0-5-5A5,5,0,0,0,19.79,31.21Z" transform="translate(-0.67 -0.67)"/><path d="M48.21,31.21a5,5,0,1,0-5-5A5,5,0,0,0,48.21,31.21Z" transform="translate(-0.67 -0.67)"/></g></svg>