<svg width="85" height="75" viewBox="0 0 85 75" fill="none" xmlns="http://www.w3.org/2000/svg">
<path d="M53.875 0.125H19.75C16.6029 0.125 13.9108 1.97917 12.7733 4.64917L1.32249 30.7929C0.98124 31.6458 0.791656 32.5358 0.791656 33.5V40.9167C0.791656 44.9958 4.20416 48.3333 8.37499 48.3333H32.3004L28.6983 65.2804L28.5846 66.4671C28.5846 67.9875 29.2292 69.3967 30.2529 70.3979L34.2721 74.2917L59.2592 49.8537C60.6241 48.5187 61.4583 46.6646 61.4583 44.625V7.54167C61.4583 3.4625 58.0458 0.125 53.875 0.125ZM69.0416 0.125V44.625H84.2083V0.125H69.0416Z" fill="black"/>
</svg>
