<?xml version="1.0" encoding="utf-8"?>
<!-- Generator: Adobe Illustrator 24.0.2, SVG Export Plug-In . SVG Version: 6.00 Build 0)  -->
<svg version="1.1" xmlns="http://www.w3.org/2000/svg" xmlns:xlink="http://www.w3.org/1999/xlink" x="0px" y="0px"
	 viewBox="0 0 68 68" style="enable-background:new 0 0 68 68;" xml:space="preserve">
<g id="Capa_1">
	<path d="M34,0.7C15.6,0.7,0.7,15.6,0.7,34S15.6,67.3,34,67.3c18.4,0,33.4-14.9,33.4-33.3S52.4,0.7,34,0.7z M34,60.7
		C19.3,60.7,7.3,48.7,7.3,34S19.3,7.3,34,7.3c14.7,0,26.7,11.9,26.7,26.7S48.7,60.7,34,60.7z M34,52.3c7.8,0,14.4-4.8,17.1-11.7
		h-5.6c-2.3,4-6.6,6.7-11.5,6.7c-4.9,0-9.2-2.7-11.5-6.7h-5.6C19.6,47.5,26.2,52.3,34,52.3z"/>
</g>
<g id="eyes">
	<path d="M19.8,31.2c2.8,0,5-2.2,5-5c0-2.8-2.2-5-5-5c-2.8,0-5,2.2-5,5C14.8,29,17,31.2,19.8,31.2z"/>
	<path d="M48.2,31.2c2.8,0,5-2.2,5-5c0-2.8-2.2-5-5-5c-2.8,0-5,2.2-5,5C43.2,29,45.4,31.2,48.2,31.2z"/>
</g>
</svg>
